<mxfile host="Electron" modified="2024-07-19T11:01:05.517Z" agent="Mozilla/5.0 (Windows NT 10.0; Win64; x64) AppleWebKit/537.36 (KHTML, like Gecko) draw.io/22.0.3 Chrome/114.0.5735.289 Electron/25.8.4 Safari/537.36" etag="Jrq1TxGVLbsHM1FPjLWx" version="22.0.3" type="device">
  <diagram id="3228e29e-7158-1315-38df-8450db1d8a1d" name="Page-1">
    <mxGraphModel dx="619" dy="529" grid="1" gridSize="10" guides="1" tooltips="1" connect="1" arrows="1" fold="1" page="1" pageScale="1" pageWidth="1169" pageHeight="827" background="none" math="0" shadow="0">
      <root>
        <mxCell id="0" />
        <mxCell id="1" parent="0" />
        <mxCell id="sK3tTHBo8_BVSVDVNylo-21574" value="" style="rounded=1;whiteSpace=wrap;html=1;fillColor=#dae8fc;strokeColor=#6c8ebf;opacity=50;arcSize=9;" vertex="1" parent="1">
          <mxGeometry x="20" y="13" width="450" height="401" as="geometry" />
        </mxCell>
        <mxCell id="sK3tTHBo8_BVSVDVNylo-21573" value="" style="rounded=1;whiteSpace=wrap;html=1;fillColor=#e1d5e7;strokeColor=#9673a6;opacity=50;arcSize=9;" vertex="1" parent="1">
          <mxGeometry x="30" y="53" width="430" height="351" as="geometry" />
        </mxCell>
        <mxCell id="sK3tTHBo8_BVSVDVNylo-21565" value="" style="rounded=1;whiteSpace=wrap;html=1;fillColor=#f8cecc;strokeColor=#b85450;opacity=50;arcSize=9;" vertex="1" parent="1">
          <mxGeometry x="40" y="83" width="360" height="311" as="geometry" />
        </mxCell>
        <mxCell id="sK3tTHBo8_BVSVDVNylo-21564" value="" style="rounded=1;whiteSpace=wrap;html=1;fillColor=#f5f5f5;strokeColor=#666666;opacity=50;arcSize=9;fontColor=#333333;" vertex="1" parent="1">
          <mxGeometry x="50" y="93" width="250" height="291" as="geometry" />
        </mxCell>
        <mxCell id="sK3tTHBo8_BVSVDVNylo-21561" value="" style="rounded=1;whiteSpace=wrap;html=1;fillColor=#ffe6cc;strokeColor=#d79b00;opacity=50;arcSize=9;" vertex="1" parent="1">
          <mxGeometry x="60" y="163" width="230" height="211" as="geometry" />
        </mxCell>
        <mxCell id="sK3tTHBo8_BVSVDVNylo-21556" value="" style="rounded=1;whiteSpace=wrap;html=1;fillColor=#d5e8d4;strokeColor=#82b366;opacity=50;arcSize=9;" vertex="1" parent="1">
          <mxGeometry x="110" y="223" width="130" height="141" as="geometry" />
        </mxCell>
        <mxCell id="sK3tTHBo8_BVSVDVNylo-21555" value="" style="rounded=1;whiteSpace=wrap;html=1;fillColor=#dae8fc;strokeColor=#6c8ebf;opacity=50;" vertex="1" parent="1">
          <mxGeometry x="115" y="282" width="120" height="71" as="geometry" />
        </mxCell>
        <mxCell id="21534" value="Entiers naturels&lt;br style=&quot;font-size: 12px;&quot;&gt;ℕ" style="text;fontSize=12;align=center;verticalAlign=middle;html=1;fontColor=default;" parent="1" vertex="1">
          <mxGeometry x="120" y="282" width="110" height="39" as="geometry" />
        </mxCell>
        <mxCell id="sK3tTHBo8_BVSVDVNylo-21540" value="Entiers relatifs&lt;br style=&quot;font-size: 12px;&quot;&gt;ℤ&lt;br style=&quot;font-size: 12px;&quot;&gt;" style="text;fontSize=12;align=center;verticalAlign=middle;html=1;fontColor=default;" vertex="1" parent="1">
          <mxGeometry x="80" y="222" width="190" height="40" as="geometry" />
        </mxCell>
        <mxCell id="sK3tTHBo8_BVSVDVNylo-21541" value="Nombres décimaux&lt;br style=&quot;font-size: 12px;&quot;&gt;D" style="text;fontSize=12;align=center;verticalAlign=middle;html=1;fontColor=default;" vertex="1" parent="1">
          <mxGeometry x="80" y="163.5" width="190" height="39.5" as="geometry" />
        </mxCell>
        <mxCell id="sK3tTHBo8_BVSVDVNylo-21544" value="Nombres rationnels&lt;br style=&quot;font-size: 12px;&quot;&gt;Q" style="text;fontSize=12;align=center;verticalAlign=middle;html=1;fontColor=default;" vertex="1" parent="1">
          <mxGeometry x="80" y="83" width="190" height="70" as="geometry" />
        </mxCell>
        <mxCell id="sK3tTHBo8_BVSVDVNylo-21545" value="Nombres Réels&amp;nbsp;&lt;br style=&quot;font-size: 12px;&quot;&gt;R" style="text;fontSize=12;align=center;verticalAlign=middle;html=1;fontColor=default;" vertex="1" parent="1">
          <mxGeometry x="300" y="98" width="100" height="40" as="geometry" />
        </mxCell>
        <mxCell id="sK3tTHBo8_BVSVDVNylo-21546" value="Nombres complexes (C)" style="text;fontSize=12;align=center;verticalAlign=middle;html=1;fontColor=default;" vertex="1" parent="1">
          <mxGeometry x="160" y="43" width="120" height="50" as="geometry" />
        </mxCell>
        <mxCell id="sK3tTHBo8_BVSVDVNylo-21547" value="0" style="text;strokeColor=none;align=center;fillColor=none;html=1;verticalAlign=middle;whiteSpace=wrap;rounded=0;" vertex="1" parent="1">
          <mxGeometry x="110" y="302" width="60" height="30" as="geometry" />
        </mxCell>
        <mxCell id="sK3tTHBo8_BVSVDVNylo-21550" value="42" style="text;strokeColor=none;align=center;fillColor=none;html=1;verticalAlign=middle;whiteSpace=wrap;rounded=0;" vertex="1" parent="1">
          <mxGeometry x="155" y="323" width="60" height="30" as="geometry" />
        </mxCell>
        <mxCell id="sK3tTHBo8_BVSVDVNylo-21551" value="109" style="text;strokeColor=none;align=center;fillColor=none;html=1;verticalAlign=middle;whiteSpace=wrap;rounded=0;" vertex="1" parent="1">
          <mxGeometry x="185" y="302" width="60" height="30" as="geometry" />
        </mxCell>
        <mxCell id="sK3tTHBo8_BVSVDVNylo-21552" value="-1" style="text;strokeColor=none;align=center;fillColor=none;html=1;verticalAlign=middle;whiteSpace=wrap;rounded=0;" vertex="1" parent="1">
          <mxGeometry x="110" y="252" width="60" height="30" as="geometry" />
        </mxCell>
        <mxCell id="sK3tTHBo8_BVSVDVNylo-21553" value="-17" style="text;strokeColor=none;align=center;fillColor=none;html=1;verticalAlign=middle;whiteSpace=wrap;rounded=0;" vertex="1" parent="1">
          <mxGeometry x="185" y="252" width="60" height="30" as="geometry" />
        </mxCell>
        <mxCell id="sK3tTHBo8_BVSVDVNylo-21557" value="-0.25" style="text;strokeColor=none;align=center;fillColor=none;html=1;verticalAlign=middle;whiteSpace=wrap;rounded=0;" vertex="1" parent="1">
          <mxGeometry x="235" y="273" width="60" height="30" as="geometry" />
        </mxCell>
        <mxCell id="sK3tTHBo8_BVSVDVNylo-21558" value="2/5" style="text;strokeColor=none;align=center;fillColor=none;html=1;verticalAlign=middle;whiteSpace=wrap;rounded=0;" vertex="1" parent="1">
          <mxGeometry x="60" y="243" width="60" height="30" as="geometry" />
        </mxCell>
        <mxCell id="sK3tTHBo8_BVSVDVNylo-21559" value="-37/20" style="text;strokeColor=none;align=center;fillColor=none;html=1;verticalAlign=middle;whiteSpace=wrap;rounded=0;" vertex="1" parent="1">
          <mxGeometry x="95" y="193" width="60" height="30" as="geometry" />
        </mxCell>
        <mxCell id="sK3tTHBo8_BVSVDVNylo-21560" value="-19.06" style="text;strokeColor=none;align=center;fillColor=none;html=1;verticalAlign=middle;whiteSpace=wrap;rounded=0;" vertex="1" parent="1">
          <mxGeometry x="200" y="193" width="60" height="30" as="geometry" />
        </mxCell>
        <mxCell id="sK3tTHBo8_BVSVDVNylo-21562" value="2/3" style="text;strokeColor=none;align=center;fillColor=none;html=1;verticalAlign=middle;whiteSpace=wrap;rounded=0;" vertex="1" parent="1">
          <mxGeometry x="215" y="123" width="60" height="30" as="geometry" />
        </mxCell>
        <mxCell id="sK3tTHBo8_BVSVDVNylo-21563" value="-17/11" style="text;strokeColor=none;align=center;fillColor=none;html=1;verticalAlign=middle;whiteSpace=wrap;rounded=0;" vertex="1" parent="1">
          <mxGeometry x="70" y="123" width="60" height="30" as="geometry" />
        </mxCell>
        <mxCell id="sK3tTHBo8_BVSVDVNylo-21567" value="π" style="text;whiteSpace=wrap;" vertex="1" parent="1">
          <mxGeometry x="320" y="147" width="20" height="30" as="geometry" />
        </mxCell>
        <mxCell id="sK3tTHBo8_BVSVDVNylo-21568" value="e" style="text;whiteSpace=wrap;" vertex="1" parent="1">
          <mxGeometry x="340" y="162" width="20" height="30" as="geometry" />
        </mxCell>
        <mxCell id="sK3tTHBo8_BVSVDVNylo-21569" value="√2" style="text;whiteSpace=wrap;" vertex="1" parent="1">
          <mxGeometry x="360" y="147" width="20" height="30" as="geometry" />
        </mxCell>
        <mxCell id="sK3tTHBo8_BVSVDVNylo-21570" value="1+i√5" style="text;whiteSpace=wrap;" vertex="1" parent="1">
          <mxGeometry x="410" y="153" width="50" height="30" as="geometry" />
        </mxCell>
        <mxCell id="sK3tTHBo8_BVSVDVNylo-21571" value="5+2i" style="text;whiteSpace=wrap;" vertex="1" parent="1">
          <mxGeometry x="410" y="98" width="40" height="30" as="geometry" />
        </mxCell>
        <mxCell id="sK3tTHBo8_BVSVDVNylo-21572" value="√2+iπ" style="text;whiteSpace=wrap;" vertex="1" parent="1">
          <mxGeometry x="410" y="193" width="40" height="30" as="geometry" />
        </mxCell>
        <mxCell id="sK3tTHBo8_BVSVDVNylo-21575" value="Quaternions (H)" style="text;fontSize=12;align=center;verticalAlign=middle;html=1;fontColor=default;" vertex="1" parent="1">
          <mxGeometry x="175" y="13" width="120" height="30" as="geometry" />
        </mxCell>
      </root>
    </mxGraphModel>
  </diagram>
</mxfile>
